<svg  xmlns="http://www.w3.org/2000/svg" xmlns:xlink="http://www.w3.org/1999/xlink" shape-rendering="crispEdges" height="128" width="128" viewBox="0 0 29 29"><path fill="#FFFFFF" d="M0,0 h29v29H0z"></path><path fill="#000000" d="M0 0h7v1H0zM8 0h1v1H8zM10 0h1v1H10zM12 0h1v1H12zM15 0h6v1H15zM22,0 h7v1H22zM0 1h1v1H0zM6 1h1v1H6zM8 1h1v1H8zM10 1h1v1H10zM14 1h2v1H14zM20 1h1v1H20zM22 1h1v1H22zM28,1 h1v1H28zM0 2h1v1H0zM2 2h3v1H2zM6 2h1v1H6zM13 2h3v1H13zM18 2h1v1H18zM20 2h1v1H20zM22 2h1v1H22zM24 2h3v1H24zM28,2 h1v1H28zM0 3h1v1H0zM2 3h3v1H2zM6 3h1v1H6zM8 3h1v1H8zM10 3h1v1H10zM17 3h3v1H17zM22 3h1v1H22zM24 3h3v1H24zM28,3 h1v1H28zM0 4h1v1H0zM2 4h3v1H2zM6 4h1v1H6zM9 4h2v1H9zM13 4h1v1H13zM19 4h1v1H19zM22 4h1v1H22zM24 4h3v1H24zM28,4 h1v1H28zM0 5h1v1H0zM6 5h1v1H6zM9 5h1v1H9zM12 5h1v1H12zM14 5h1v1H14zM16 5h5v1H16zM22 5h1v1H22zM28,5 h1v1H28zM0 6h7v1H0zM8 6h1v1H8zM10 6h1v1H10zM12 6h1v1H12zM14 6h1v1H14zM16 6h1v1H16zM18 6h1v1H18zM20 6h1v1H20zM22,6 h7v1H22zM8 7h8v1H8zM17 7h2v1H17zM20 7h1v1H20zM0 8h1v1H0zM2 8h2v1H2zM5 8h3v1H5zM12 8h3v1H12zM16 8h1v1H16zM18 8h1v1H18zM22 8h1v1H22zM25 8h1v1H25zM27,8 h2v1H27zM2 9h2v1H2zM11 9h1v1H11zM16 9h1v1H16zM19 9h6v1H19zM28,9 h1v1H28zM4 10h5v1H4zM11 10h2v1H11zM14 10h1v1H14zM16 10h2v1H16zM20 10h1v1H20zM22 10h2v1H22zM26 10h2v1H26zM0 11h2v1H0zM5 11h1v1H5zM7 11h2v1H7zM10 11h1v1H10zM12 11h3v1H12zM16 11h1v1H16zM18 11h6v1H18zM28,11 h1v1H28zM0 12h1v1H0zM2 12h1v1H2zM6 12h1v1H6zM8 12h1v1H8zM10 12h1v1H10zM15 12h3v1H15zM19 12h1v1H19zM25 12h2v1H25zM5 13h1v1H5zM7 13h4v1H7zM13 13h1v1H13zM15 13h2v1H15zM19 13h1v1H19zM21 13h2v1H21zM26,13 h3v1H26zM2 14h1v1H2zM4 14h5v1H4zM11 14h1v1H11zM14 14h1v1H14zM16 14h1v1H16zM18 14h2v1H18zM21 14h2v1H21zM26,14 h3v1H26zM0 15h2v1H0zM3 15h3v1H3zM8 15h1v1H8zM12 15h2v1H12zM15 15h2v1H15zM19 15h3v1H19zM23 15h2v1H23zM27 15h1v1H27zM0 16h1v1H0zM6 16h1v1H6zM8 16h5v1H8zM16 16h5v1H16zM23 16h3v1H23zM27 16h1v1H27zM1 17h1v1H1zM4 17h1v1H4zM12 17h2v1H12zM15 17h2v1H15zM18 17h1v1H18zM23 17h1v1H23zM25 17h3v1H25zM0 18h1v1H0zM6 18h1v1H6zM9 18h3v1H9zM15 18h2v1H15zM22 18h3v1H22zM26 18h1v1H26zM4 19h1v1H4zM7 19h2v1H7zM11 19h1v1H11zM15 19h1v1H15zM17 19h1v1H17zM20 19h1v1H20zM22 19h1v1H22zM26 19h1v1H26zM1 20h2v1H1zM4 20h3v1H4zM9 20h1v1H9zM12 20h2v1H12zM16 20h1v1H16zM18 20h9v1H18zM8 21h3v1H8zM12 21h5v1H12zM19 21h2v1H19zM24,21 h5v1H24zM0 22h7v1H0zM8 22h1v1H8zM11 22h3v1H11zM18 22h3v1H18zM22 22h1v1H22zM24 22h2v1H24zM27 22h1v1H27zM0 23h1v1H0zM6 23h1v1H6zM8 23h2v1H8zM15 23h1v1H15zM18 23h1v1H18zM20 23h1v1H20zM24 23h2v1H24zM27 23h1v1H27zM0 24h1v1H0zM2 24h3v1H2zM6 24h1v1H6zM10 24h2v1H10zM14 24h3v1H14zM20 24h5v1H20zM26 24h2v1H26zM0 25h1v1H0zM2 25h3v1H2zM6 25h1v1H6zM8 25h2v1H8zM11 25h1v1H11zM13 25h3v1H13zM17 25h1v1H17zM20 25h2v1H20zM23 25h3v1H23zM28,25 h1v1H28zM0 26h1v1H0zM2 26h3v1H2zM6 26h1v1H6zM8 26h1v1H8zM10 26h1v1H10zM12 26h1v1H12zM16 26h1v1H16zM18 26h2v1H18zM23 26h1v1H23zM26 26h1v1H26zM28,26 h1v1H28zM0 27h1v1H0zM6 27h1v1H6zM9 27h1v1H9zM11 27h1v1H11zM13 27h2v1H13zM16 27h1v1H16zM19 27h3v1H19zM25 27h1v1H25zM27 27h1v1H27zM0 28h7v1H0zM8 28h1v1H8zM10 28h1v1H10zM16 28h1v1H16zM19 28h3v1H19zM23 28h1v1H23zM25 28h1v1H25zM27 28h1v1H27z"></path></svg>